<?xml version="1.0" encoding="UTF-8" standalone="no"?>
<svg
   xmlns:dc="http://purl.org/dc/elements/1.1/"
   xmlns:cc="http://creativecommons.org/ns#"
   xmlns:rdf="http://www.w3.org/1999/02/22-rdf-syntax-ns#"
   xmlns:svg="http://www.w3.org/2000/svg"
   xmlns="http://www.w3.org/2000/svg"
   xmlns:sodipodi="http://sodipodi.sourceforge.net/DTD/sodipodi-0.dtd"
   xmlns:inkscape="http://www.inkscape.org/namespaces/inkscape"
   version="1.1"
   x="0px"
   y="0px"
   viewBox="0 0 82 82"
   id="svg3392"
   inkscape:version="0.91 r13725"
   sodipodi:docname="Presentation-wikidebats.svg"
   width="82"
   height="82">
  <metadata
     id="metadata3408">
    <rdf:RDF>
      <cc:Work
         rdf:about="">
        <dc:format>image/svg+xml</dc:format>
        <dc:type
           rdf:resource="http://purl.org/dc/dcmitype/StillImage" />
        <dc:title></dc:title>
      </cc:Work>
    </rdf:RDF>
  </metadata>
  <defs
     id="defs3406" />
  <sodipodi:namedview
     pagecolor="#ffffff"
     bordercolor="#666666"
     borderopacity="1"
     objecttolerance="10"
     gridtolerance="10"
     guidetolerance="10"
     inkscape:pageopacity="0"
     inkscape:pageshadow="2"
     inkscape:window-width="816"
     inkscape:window-height="716"
     id="namedview3404"
     showgrid="false"
     inkscape:zoom="1.888"
     inkscape:cx="4.9830503"
     inkscape:cy="28.5"
     inkscape:window-x="63"
     inkscape:window-y="24"
     inkscape:window-maximized="0"
     inkscape:current-layer="svg3392"
     inkscape:snap-global="true"
     fit-margin-top="0"
     fit-margin-left="0"
     fit-margin-right="0"
     fit-margin-bottom="0" />
  <g
     transform="translate(-9.0000005,-961.36218)"
     id="g3394">
    <g
       transform="translate(7.0019695,959.32871)"
       id="g3396">
      <path
         style="color:#000000;text-indent:0;text-transform:none;direction:ltr;block-progression:tb;baseline-shift:baseline;clip-rule:nonzero;display:inline;overflow:visible;visibility:visible;opacity:1;isolation:auto;mix-blend-mode:normal;color-interpolation:sRGB;color-interpolation-filters:linearRGB;solid-color:#000000;solid-opacity:1;fill:#000000;fill-opacity:1;fill-rule:nonzero;stroke:none;stroke-width:1;stroke-linecap:butt;stroke-linejoin:miter;stroke-miterlimit:4;stroke-dasharray:none;stroke-dashoffset:0;stroke-opacity:1;marker:none;color-rendering:auto;image-rendering:auto;shape-rendering:auto;text-rendering:auto;enable-background:accumulate"
         d="m 42.99803,2.03347 c -22.63183,0 -40.999999,18.3682 -40.999999,41 0,22.6318 18.368169,41 40.999999,41 22.63183,0 41,-18.3682 41,-41 0,-22.6318 -18.36817,-41 -41,-41 z m 0,2 c 21.55095,0 39,17.4491 39,39 0,21.5509 -17.44905,39 -39,39 -21.55095,0 -38.999999,-17.4491 -38.999999,-39 0,-21.5509 17.449049,-39 38.999999,-39 z m -9.375,15.5938 c -3.15625,2.3934 -4.56894,5.9926 -4.625,8.9377 -0.007,0.5283 0.47163,1.0142 1,1.0142 0.52837,0 1.00747,-0.4859 1,-1.0142 0,-3.1286 1.59102,-5.6723 3.59375,-7.1562 4.22172,-2.0025 9.63378,-1.5366 13.53125,-0.3438 2.59612,0.8136 4.26685,2.3966 5.34375,4.2188 1.0769,1.8222 1.53125,3.8985 1.53125,5.5 0,5.0522 -3.45379,8.149 -7.25,11.7188 -1.87509,1.7617 -5.63758,5.1073 -7.65625,9.0624 -0.0684,0.1457 -0.10082,0.308 -0.0937,0.4688 l 0,9 c -0.007,0.5283 0.47163,1.0142 1,1.0142 0.528371,0 1.00747,-0.4859 1,-1.0142 l 0,-8.7188 c 1.79213,-3.3923 5.216251,-6.5797 7.09375,-8.3437 3.77211,-3.5471 7.90625,-7.2195 7.90625,-13.1875 0,-1.956 -0.524299,-4.3202 -1.8125,-6.5 -1.2882,-2.1798 -3.388579,-4.1599 -6.46875,-5.125 -4.25005,-1.1381 -10.25005,-2.1381 -15.0938,0.4685 z m 7.375,45.4062 c -1.10457,0 -2,0.8954 -2,2 0,1.1046 0.89543,2 2,2 1.10457,0 2,-0.8954 2,-2 0,-1.1046 -0.89543,-2 -2,-2 z"
         visibility="visible"
         display="inline"
         overflow="visible"
         id="path3398"
         inkscape:connector-curvature="0" />
    </g>
  </g>
</svg>
