<?xml version="1.0" encoding="UTF-8" standalone="no"?>
<!-- Created with Inkscape (http://www.inkscape.org/) -->

<svg
   xmlns:dc="http://purl.org/dc/elements/1.1/"
   xmlns:cc="http://creativecommons.org/ns#"
   xmlns:rdf="http://www.w3.org/1999/02/22-rdf-syntax-ns#"
   xmlns:svg="http://www.w3.org/2000/svg"
   xmlns="http://www.w3.org/2000/svg"
   xmlns:sodipodi="http://sodipodi.sourceforge.net/DTD/sodipodi-0.dtd"
   xmlns:inkscape="http://www.inkscape.org/namespaces/inkscape"
   width="70"
   height="70"
   viewBox="0 0 69.999999 70.000002"
   id="svg4021"
   version="1.1"
   inkscape:version="0.48.4 r9939"
   sodipodi:docname="famipour.svg">
  <defs
     id="defs4023" />
  <sodipodi:namedview
     id="base"
     pagecolor="#ffffff"
     bordercolor="#666666"
     borderopacity="1.0"
     inkscape:pageopacity="0.0"
     inkscape:pageshadow="2"
     inkscape:zoom="5.6"
     inkscape:cx="26.24781"
     inkscape:cy="-4.7465658"
     inkscape:document-units="px"
     inkscape:current-layer="layer1"
     showgrid="false"
     fit-margin-top="1.5"
     fit-margin-right="2"
     fit-margin-bottom="2"
     fit-margin-left="2"
     inkscape:window-width="1867"
     inkscape:window-height="1056"
     inkscape:window-x="53"
     inkscape:window-y="24"
     inkscape:window-maximized="1" />
  <metadata
     id="metadata4026">
    <rdf:RDF>
      <cc:Work
         rdf:about="">
        <dc:format>image/svg+xml</dc:format>
        <dc:type
           rdf:resource="http://purl.org/dc/dcmitype/StillImage" />
        <dc:title></dc:title>
      </cc:Work>
    </rdf:RDF>
  </metadata>
  <g
     inkscape:label="Calque 1"
     inkscape:groupmode="layer"
     id="layer1"
     transform="translate(-498.43749,-543.92483)">
    <path
       sodipodi:type="arc"
       style="fill:#02a68f;fill-opacity:1;fill-rule:nonzero;stroke:#ffffff;stroke-width:1;stroke-miterlimit:10;stroke-opacity:1;stroke-dasharray:none"
       id="path3904"
       sodipodi:cx="34.375"
       sodipodi:cy="35.357143"
       sodipodi:rx="32.94643"
       sodipodi:ry="33.571426"
       d="m 67.32143,35.357143 a 32.94643,33.571426 0 1 1 -65.8928602,0 32.94643,33.571426 0 1 1 65.8928602,0 z"
       transform="matrix(1.0466132,0,0,1.0268115,497.46588,542.62297)" />
    <g
       id="g46"
       transform="matrix(1.25,0,0,-1.25,524.89435,593.89465)"
       style="stroke:#ffffff;stroke-width:2.5;stroke-miterlimit:10;stroke-opacity:1;stroke-dasharray:none">
      <path
         d="m 0,0 c 1.078,-0.488 2.267,-0.762 3.511,-0.762 l 1.162,0 6.718,0.02"
         style="fill:none;stroke:#ffffff;stroke-width:2.5;stroke-linecap:round;stroke-linejoin:miter;stroke-miterlimit:10;stroke-opacity:1;stroke-dasharray:none"
         id="path48"
         inkscape:connector-curvature="0" />
    </g>
    <g
       id="g50"
       transform="matrix(1.25,0,0,-1.25,550.02247,571.2719)"
       style="stroke:#ffffff;stroke-width:2.5;stroke-miterlimit:10;stroke-opacity:1;stroke-dasharray:none">
      <path
         d="m 0,0 c -0.925,0.216 -8.72,0.81 -8.72,0.81 -1.181,0 -1.733,1.338 -1.102,2.361 0.631,1.024 1.876,2.835 1.989,3.702 0.089,0.761 0,3.352 0,3.352 0,2.434 -1.706,3.005 -3.005,3.005 -1.176,0 -1.102,-1.188 -1.102,-1.634 l 0,-0.983 0,-1.378 c 0,0 -0.403,-1.391 -0.98,-1.89 -0.578,-0.499 -7.113,-7.769 -7.113,-7.769 l -0.414,-0.57"
         style="fill:none;stroke:#ffffff;stroke-width:2.5;stroke-linecap:round;stroke-linejoin:miter;stroke-miterlimit:10;stroke-opacity:1;stroke-dasharray:none"
         id="path52"
         inkscape:connector-curvature="0" />
    </g>
    <g
       id="g54"
       transform="matrix(1.25,0,0,-1.25,547.21922,594.79852)"
       style="stroke:#ffffff;stroke-width:2.5;stroke-miterlimit:10;stroke-opacity:1;stroke-dasharray:none">
      <path
         d="m 0,0 c 1.235,0 2.235,1.001 2.235,2.236 0,1.234 -1,2.235 -2.235,2.235 L -0.699,4.478 -6.412,4.453 c -1.551,0 -2.192,-0.864 -2.192,-2.146 0,-1.282 0.955,-2.338 2.226,-2.282 L 0.003,0 0,0 z"
         style="fill:none;stroke:#ffffff;stroke-width:2.5;stroke-linecap:round;stroke-linejoin:miter;stroke-miterlimit:10;stroke-opacity:1;stroke-dasharray:none"
         id="path56"
         inkscape:connector-curvature="0" />
    </g>
    <g
       id="g58"
       transform="matrix(1.25,0,0,-1.25,549.49948,577.26377)"
       style="stroke:#ffffff;stroke-width:2.5;stroke-miterlimit:10;stroke-opacity:1;stroke-dasharray:none">
      <path
         d="m 0,0 -9.019,0.025 c -1.37,0 -2.152,1.026 -2.152,2.285 0,1.259 0.956,2.459 2.152,2.459 l 9.486,0.024 0.01,0 C 1.801,4.793 2.874,3.721 2.874,2.397 2.874,1.073 1.801,0 0.477,0 L 0,0 z"
         style="fill:none;stroke:#ffffff;stroke-width:2.5;stroke-linecap:round;stroke-linejoin:miter;stroke-miterlimit:10;stroke-opacity:1;stroke-dasharray:none"
         id="path60"
         inkscape:connector-curvature="0" />
    </g>
    <g
       id="g62"
       transform="matrix(1.25,0,0,-1.25,537.31135,583.42715)"
       style="stroke:#ffffff;stroke-width:2.5;stroke-miterlimit:10;stroke-opacity:1;stroke-dasharray:none">
      <path
         d="m 0,0 c -0.687,0 -1.656,1.2 -1.656,2.459 0,1.259 0.869,2.459 2.152,2.459 L 9.93,4.944 c 1.369,0 2.48,-1.111 2.48,-2.481 0,-1.369 -1.111,-2.48 -2.48,-2.48 L 0,0 z"
         style="fill:none;stroke:#ffffff;stroke-width:2.5;stroke-linecap:round;stroke-linejoin:miter;stroke-miterlimit:10;stroke-opacity:1;stroke-dasharray:none"
         id="path64"
         inkscape:connector-curvature="0" />
    </g>
    <g
       id="g66"
       transform="matrix(1.25,0,0,-1.25,549.03135,589.18215)"
       style="stroke:#ffffff;stroke-width:2.5;stroke-miterlimit:10;stroke-opacity:1;stroke-dasharray:none">
      <path
         d="M 0,0 C 1.267,0 2.294,1.027 2.294,2.294 2.294,3.562 1.267,4.588 0,4.588 L -8.622,4.58 c -1.556,0 -2.152,-0.852 -2.152,-2.112 0,-1.259 0.571,-2.459 2.152,-2.459 L 0,0 z"
         style="fill:none;stroke:#ffffff;stroke-width:2.5;stroke-linecap:round;stroke-linejoin:miter;stroke-miterlimit:10;stroke-opacity:1;stroke-dasharray:none"
         id="path68"
         inkscape:connector-curvature="0" />
    </g>
    <path
       d="m 524.40035,594.5904 -8.56375,0 0,-22.28375 8.56375,0 0,22.28375 z"
       style="fill:none;stroke:#ffffff;stroke-width:3.125;stroke-linecap:round;stroke-linejoin:miter;stroke-miterlimit:10;stroke-opacity:1;stroke-dasharray:none"
       id="path70"
       inkscape:connector-curvature="0" />
  </g>
</svg>
