<svg id="Calque_2" data-name="Calque 2" xmlns="http://www.w3.org/2000/svg" viewBox="0 0 28 28"><defs><style>.cls-1{fill:none;stroke:#ef8950;stroke-linecap:round;stroke-miterlimit:10;stroke-width:1.5px;}</style></defs><title>ico-Jaune02</title><path class="cls-1" d="M9.54,12.12V7.69A1.13,1.13,0,0,0,8.28,6.42,1.27,1.27,0,0,0,7,7.71V20.17a6.61,6.61,0,0,0,6.63,6.47h.63c6.69,0,6.85-6.59,6.85-6.59V11.4c0-.33.05-1.22-.82-1.22A2,2,0,0,0,18,12.42v4.5a5.62,5.62,0,0,0-7.44,4.34"/><path class="cls-1" d="M12.26,11.44V4.16A1.12,1.12,0,0,0,11,2.89c-.74,0-1.45.34-1.45,1.27v8"/><path class="cls-1" d="M15.18,11.59v-9a1.37,1.37,0,0,0-1.45-1.27c-.74,0-1.45.57-1.45,1v9.1"/><path class="cls-1" d="M18,15.68V4.16a1.41,1.41,0,0,0-1.45-1.27,1.25,1.25,0,0,0-1.35,1.27v7.38"/><path class="cls-1" d="M16.42,11.94a9.21,9.21,0,0,0-8.13.91"/></svg>